<mxfile host="app.diagrams.net" agent="Mozilla/5.0 (X11; Linux x86_64) AppleWebKit/537.36 (KHTML, like Gecko) Chrome/126.0.0.0 Safari/537.36" version="24.7.7">
  <diagram id="C5RBs43oDa-KdzZeNtuy" name="Page-1">
    <mxGraphModel dx="1092" dy="1737" grid="1" gridSize="10" guides="1" tooltips="1" connect="1" arrows="1" fold="1" page="1" pageScale="1" pageWidth="827" pageHeight="1169" math="0" shadow="0">
      <root>
        <mxCell id="WIyWlLk6GJQsqaUBKTNV-0" />
        <mxCell id="WIyWlLk6GJQsqaUBKTNV-1" parent="WIyWlLk6GJQsqaUBKTNV-0" />
        <mxCell id="CaVhT0sytTr_e4BCysla-0" value="&lt;p style=&quot;margin:0px;margin-top:4px;text-align:center;&quot;&gt;&lt;i&gt;&amp;lt;&amp;lt;Abstract&amp;gt;&amp;gt;&lt;/i&gt;&lt;br&gt;&lt;/p&gt;&lt;p style=&quot;margin:0px;margin-top:4px;text-align:center;&quot;&gt;&lt;i&gt;&lt;b&gt;Role&lt;/b&gt;&lt;/i&gt;&lt;/p&gt;&lt;hr size=&quot;1&quot; style=&quot;border-style:solid;&quot;&gt;&lt;p style=&quot;margin:0px;margin-left:4px;&quot;&gt;+ run(): void&lt;br&gt;&lt;/p&gt;&lt;p style=&quot;margin:0px;margin-left:4px;&quot;&gt;+ get_role_type(): NodeRole&lt;br&gt;&lt;/p&gt;" style="verticalAlign=top;align=left;overflow=fill;html=1;whiteSpace=wrap;fillColor=#cdeb8b;strokeColor=#613E20;strokeWidth=2;" parent="WIyWlLk6GJQsqaUBKTNV-1" vertex="1">
          <mxGeometry x="518" y="240" width="165" height="90" as="geometry" />
        </mxCell>
        <mxCell id="CaVhT0sytTr_e4BCysla-1" value="&lt;p style=&quot;margin:0px;margin-top:4px;text-align:center;&quot;&gt;&lt;i&gt;&amp;lt;&amp;lt;Abstract&amp;gt;&amp;gt;&lt;/i&gt;&lt;br&gt;&lt;b&gt;NetworkManager&lt;/b&gt;&lt;/p&gt;&lt;hr size=&quot;1&quot; style=&quot;border-style:solid;&quot;&gt;&lt;p style=&quot;margin:0px;margin-left:4px;&quot;&gt;node_name&lt;/p&gt;&lt;hr size=&quot;1&quot; style=&quot;border-style:solid;&quot;&gt;&lt;p style=&quot;margin:0px;margin-left:4px;&quot;&gt;+ put(Packet, node_name)&lt;br&gt;+ get(): Packet&lt;/p&gt;" style="verticalAlign=top;align=left;overflow=fill;html=1;whiteSpace=wrap;fillColor=#cdeb8b;strokeColor=#613E20;strokeWidth=2;" parent="WIyWlLk6GJQsqaUBKTNV-1" vertex="1">
          <mxGeometry x="81" y="250" width="250" height="105" as="geometry" />
        </mxCell>
        <mxCell id="CaVhT0sytTr_e4BCysla-2" value="&lt;p style=&quot;margin:0px;margin-top:4px;text-align:center;&quot;&gt;&lt;i&gt;&amp;lt;&amp;lt;Abstract&amp;gt;&amp;gt;&lt;/i&gt;&lt;br&gt;&lt;b&gt;Aggregator&lt;/b&gt;&lt;/p&gt;&lt;hr size=&quot;1&quot; style=&quot;border-style:solid;&quot;&gt;&lt;p style=&quot;margin:0px;margin-left:4px;&quot;&gt;+ aggregate()&lt;/p&gt;" style="verticalAlign=top;align=left;overflow=fill;html=1;whiteSpace=wrap;fillColor=#cdeb8b;strokeColor=#613E20;strokeWidth=2;" parent="WIyWlLk6GJQsqaUBKTNV-1" vertex="1">
          <mxGeometry x="456" y="381" width="80" height="70" as="geometry" />
        </mxCell>
        <mxCell id="CaVhT0sytTr_e4BCysla-6" value="Extends" style="endArrow=block;endSize=16;endFill=0;html=1;rounded=0;exitX=0.5;exitY=0;exitDx=0;exitDy=0;entryX=0.25;entryY=1;entryDx=0;entryDy=0;fillColor=#cdeb8b;strokeColor=#613E20;strokeWidth=2;" parent="WIyWlLk6GJQsqaUBKTNV-1" source="CaVhT0sytTr_e4BCysla-2" target="CaVhT0sytTr_e4BCysla-0" edge="1">
          <mxGeometry width="160" relative="1" as="geometry">
            <mxPoint x="330" y="300" as="sourcePoint" />
            <mxPoint x="490" y="300" as="targetPoint" />
          </mxGeometry>
        </mxCell>
        <mxCell id="CaVhT0sytTr_e4BCysla-7" value="&lt;p style=&quot;margin:0px;margin-top:4px;text-align:center;&quot;&gt;&lt;b&gt;Trainer&lt;/b&gt;&lt;/p&gt;&lt;hr size=&quot;1&quot; style=&quot;border-style:solid;&quot;&gt;&lt;p style=&quot;margin:0px;margin-left:4px;&quot;&gt;&lt;span style=&quot;background-color: initial;&quot;&gt;+ train()&lt;/span&gt;&lt;/p&gt;" style="verticalAlign=top;align=left;overflow=fill;html=1;whiteSpace=wrap;fillColor=#cdeb8b;strokeColor=#613E20;strokeWidth=2;" parent="WIyWlLk6GJQsqaUBKTNV-1" vertex="1">
          <mxGeometry x="570.5" y="391" width="60" height="50" as="geometry" />
        </mxCell>
        <mxCell id="CaVhT0sytTr_e4BCysla-8" value="&lt;p style=&quot;margin:0px;margin-top:4px;text-align:center;&quot;&gt;&lt;b&gt;Hierarchical&lt;/b&gt;&lt;/p&gt;&lt;hr style=&quot;border-style: solid;&quot; size=&quot;1&quot;&gt;&lt;p style=&quot;margin: 0px 0px 0px 4px;&quot;&gt;&lt;br&gt;&lt;/p&gt;" style="verticalAlign=top;align=left;overflow=fill;html=1;whiteSpace=wrap;fillColor=#cdeb8b;strokeColor=#613E20;strokeWidth=2;" parent="WIyWlLk6GJQsqaUBKTNV-1" vertex="1">
          <mxGeometry x="548" y="521" width="95" height="40" as="geometry" />
        </mxCell>
        <mxCell id="CaVhT0sytTr_e4BCysla-9" value="&lt;p style=&quot;margin:0px;margin-top:4px;text-align:center;&quot;&gt;&lt;b&gt;Simple&lt;/b&gt;&lt;/p&gt;&lt;hr size=&quot;1&quot; style=&quot;border-style:solid;&quot;&gt;&lt;p style=&quot;margin:0px;margin-left:4px;&quot;&gt;&lt;br&gt;&lt;/p&gt;&lt;div&gt;&lt;br&gt;&lt;/div&gt;" style="verticalAlign=top;align=left;overflow=fill;html=1;whiteSpace=wrap;fillColor=#cdeb8b;strokeColor=#613E20;strokeWidth=2;" parent="WIyWlLk6GJQsqaUBKTNV-1" vertex="1">
          <mxGeometry x="454" y="521" width="85" height="40" as="geometry" />
        </mxCell>
        <mxCell id="CaVhT0sytTr_e4BCysla-10" value="&lt;p style=&quot;margin:0px;margin-top:4px;text-align:center;&quot;&gt;&lt;b&gt;Asynchronous&lt;/b&gt;&lt;/p&gt;&lt;hr size=&quot;1&quot; style=&quot;border-style:solid;&quot;&gt;&lt;p style=&quot;margin:0px;margin-left:4px;&quot;&gt;&lt;br&gt;&lt;/p&gt;" style="verticalAlign=top;align=left;overflow=fill;html=1;whiteSpace=wrap;fillColor=#cdeb8b;strokeColor=#613E20;strokeWidth=2;" parent="WIyWlLk6GJQsqaUBKTNV-1" vertex="1">
          <mxGeometry x="349" y="521" width="95" height="40" as="geometry" />
        </mxCell>
        <mxCell id="CaVhT0sytTr_e4BCysla-11" value="&lt;p style=&quot;margin:0px;margin-top:4px;text-align:center;&quot;&gt;&lt;b&gt;Proxy&lt;/b&gt;&lt;/p&gt;&lt;hr size=&quot;1&quot; style=&quot;border-style:solid;&quot;&gt;&lt;p style=&quot;margin:0px;margin-left:4px;&quot;&gt;+ redirect()&lt;/p&gt;" style="verticalAlign=top;align=left;overflow=fill;html=1;whiteSpace=wrap;fillColor=#cdeb8b;strokeColor=#613E20;strokeWidth=2;" parent="WIyWlLk6GJQsqaUBKTNV-1" vertex="1">
          <mxGeometry x="650" y="390" width="70" height="50" as="geometry" />
        </mxCell>
        <mxCell id="CaVhT0sytTr_e4BCysla-12" value="Extends" style="endArrow=block;endSize=16;endFill=0;html=1;rounded=0;entryX=0.5;entryY=1;entryDx=0;entryDy=0;exitX=0.5;exitY=0;exitDx=0;exitDy=0;fillColor=#cdeb8b;strokeColor=#613E20;strokeWidth=2;" parent="WIyWlLk6GJQsqaUBKTNV-1" source="CaVhT0sytTr_e4BCysla-7" target="CaVhT0sytTr_e4BCysla-0" edge="1">
          <mxGeometry width="160" relative="1" as="geometry">
            <mxPoint x="370" y="420" as="sourcePoint" />
            <mxPoint x="530" y="420" as="targetPoint" />
          </mxGeometry>
        </mxCell>
        <mxCell id="CaVhT0sytTr_e4BCysla-13" value="Extends" style="endArrow=block;endSize=16;endFill=0;html=1;rounded=0;exitX=0.5;exitY=0;exitDx=0;exitDy=0;entryX=0.75;entryY=1;entryDx=0;entryDy=0;fillColor=#cdeb8b;strokeColor=#613E20;strokeWidth=2;" parent="WIyWlLk6GJQsqaUBKTNV-1" source="CaVhT0sytTr_e4BCysla-8" target="CaVhT0sytTr_e4BCysla-2" edge="1">
          <mxGeometry width="160" relative="1" as="geometry">
            <mxPoint x="370" y="420" as="sourcePoint" />
            <mxPoint x="530" y="420" as="targetPoint" />
          </mxGeometry>
        </mxCell>
        <mxCell id="CaVhT0sytTr_e4BCysla-14" value="Extends" style="endArrow=block;endSize=16;endFill=0;html=1;rounded=0;exitX=0.5;exitY=0;exitDx=0;exitDy=0;entryX=0.5;entryY=1;entryDx=0;entryDy=0;fillColor=#cdeb8b;strokeColor=#613E20;strokeWidth=2;" parent="WIyWlLk6GJQsqaUBKTNV-1" source="CaVhT0sytTr_e4BCysla-9" target="CaVhT0sytTr_e4BCysla-2" edge="1">
          <mxGeometry width="160" relative="1" as="geometry">
            <mxPoint x="370" y="420" as="sourcePoint" />
            <mxPoint x="530" y="420" as="targetPoint" />
          </mxGeometry>
        </mxCell>
        <mxCell id="CaVhT0sytTr_e4BCysla-15" value="Extends" style="endArrow=block;endSize=16;endFill=0;html=1;rounded=0;exitX=0.5;exitY=0;exitDx=0;exitDy=0;entryX=0.25;entryY=1;entryDx=0;entryDy=0;fillColor=#cdeb8b;strokeColor=#613E20;strokeWidth=2;" parent="WIyWlLk6GJQsqaUBKTNV-1" source="CaVhT0sytTr_e4BCysla-10" target="CaVhT0sytTr_e4BCysla-2" edge="1">
          <mxGeometry width="160" relative="1" as="geometry">
            <mxPoint x="370" y="420" as="sourcePoint" />
            <mxPoint x="530" y="420" as="targetPoint" />
          </mxGeometry>
        </mxCell>
        <mxCell id="CaVhT0sytTr_e4BCysla-16" value="Extends" style="endArrow=block;endSize=16;endFill=0;html=1;rounded=0;entryX=0.75;entryY=1;entryDx=0;entryDy=0;exitX=0.5;exitY=0;exitDx=0;exitDy=0;fillColor=#cdeb8b;strokeColor=#613E20;strokeWidth=2;" parent="WIyWlLk6GJQsqaUBKTNV-1" source="CaVhT0sytTr_e4BCysla-11" target="CaVhT0sytTr_e4BCysla-0" edge="1">
          <mxGeometry width="160" relative="1" as="geometry">
            <mxPoint x="370" y="420" as="sourcePoint" />
            <mxPoint x="530" y="420" as="targetPoint" />
          </mxGeometry>
        </mxCell>
        <mxCell id="CaVhT0sytTr_e4BCysla-17" value="&lt;p style=&quot;margin:0px;margin-top:4px;text-align:center;&quot;&gt;&lt;b&gt;Star&lt;/b&gt;&lt;/p&gt;&lt;hr size=&quot;1&quot; style=&quot;border-style:solid;&quot;&gt;&lt;p style=&quot;margin:0px;margin-left:4px;&quot;&gt;&lt;br&gt;&lt;/p&gt;&lt;hr size=&quot;1&quot; style=&quot;border-style:solid;&quot;&gt;&lt;p style=&quot;margin:0px;margin-left:4px;&quot;&gt;&lt;br&gt;&lt;/p&gt;" style="verticalAlign=top;align=left;overflow=fill;html=1;whiteSpace=wrap;fillColor=#cdeb8b;strokeColor=#613E20;strokeWidth=2;" parent="WIyWlLk6GJQsqaUBKTNV-1" vertex="1">
          <mxGeometry x="141" y="440" width="60" height="40" as="geometry" />
        </mxCell>
        <mxCell id="CaVhT0sytTr_e4BCysla-18" value="&lt;p style=&quot;margin:0px;margin-top:4px;text-align:center;&quot;&gt;&lt;b&gt;FullyConnected&lt;/b&gt;&lt;/p&gt;&lt;hr size=&quot;1&quot; style=&quot;border-style:solid;&quot;&gt;&lt;p style=&quot;margin:0px;margin-left:4px;&quot;&gt;&lt;br&gt;&lt;/p&gt;&lt;hr size=&quot;1&quot; style=&quot;border-style:solid;&quot;&gt;&lt;p style=&quot;margin:0px;margin-left:4px;&quot;&gt;&lt;br&gt;&lt;/p&gt;" style="verticalAlign=top;align=left;overflow=fill;html=1;whiteSpace=wrap;fillColor=#cdeb8b;strokeColor=#613E20;strokeWidth=2;" parent="WIyWlLk6GJQsqaUBKTNV-1" vertex="1">
          <mxGeometry x="11" y="440" width="110" height="40" as="geometry" />
        </mxCell>
        <mxCell id="CaVhT0sytTr_e4BCysla-19" value="Extends" style="endArrow=block;endSize=16;endFill=0;html=1;rounded=0;exitX=0.5;exitY=0;exitDx=0;exitDy=0;entryX=0.447;entryY=1.003;entryDx=0;entryDy=0;entryPerimeter=0;fillColor=#cdeb8b;strokeColor=#613E20;strokeWidth=2;" parent="WIyWlLk6GJQsqaUBKTNV-1" source="CaVhT0sytTr_e4BCysla-17" target="CaVhT0sytTr_e4BCysla-1" edge="1">
          <mxGeometry width="160" relative="1" as="geometry">
            <mxPoint x="240" y="360" as="sourcePoint" />
            <mxPoint x="400" y="360" as="targetPoint" />
          </mxGeometry>
        </mxCell>
        <mxCell id="CaVhT0sytTr_e4BCysla-20" value="Extends" style="endArrow=block;endSize=16;endFill=0;html=1;rounded=0;exitX=0.5;exitY=0;exitDx=0;exitDy=0;entryX=0.25;entryY=1;entryDx=0;entryDy=0;fillColor=#cdeb8b;strokeColor=#613E20;strokeWidth=2;" parent="WIyWlLk6GJQsqaUBKTNV-1" source="CaVhT0sytTr_e4BCysla-18" target="CaVhT0sytTr_e4BCysla-1" edge="1">
          <mxGeometry width="160" relative="1" as="geometry">
            <mxPoint x="240" y="360" as="sourcePoint" />
            <mxPoint x="400" y="360" as="targetPoint" />
          </mxGeometry>
        </mxCell>
        <mxCell id="413kSDQB80cl6GEGwdz6-0" value="&lt;p style=&quot;margin:0px;margin-top:4px;text-align:center;&quot;&gt;&lt;b&gt;Ring&lt;/b&gt;&lt;/p&gt;&lt;hr size=&quot;1&quot; style=&quot;border-style:solid;&quot;&gt;&lt;p style=&quot;margin:0px;margin-left:4px;&quot;&gt;&lt;br&gt;&lt;/p&gt;&lt;hr size=&quot;1&quot; style=&quot;border-style:solid;&quot;&gt;&lt;p style=&quot;margin:0px;margin-left:4px;&quot;&gt;&lt;br&gt;&lt;/p&gt;" style="verticalAlign=top;align=left;overflow=fill;html=1;whiteSpace=wrap;fillColor=#cdeb8b;strokeColor=#613E20;strokeWidth=2;" parent="WIyWlLk6GJQsqaUBKTNV-1" vertex="1">
          <mxGeometry x="221" y="440" width="60" height="40" as="geometry" />
        </mxCell>
        <mxCell id="413kSDQB80cl6GEGwdz6-1" value="Extends" style="endArrow=block;endSize=16;endFill=0;html=1;rounded=0;exitX=0.5;exitY=0;exitDx=0;exitDy=0;entryX=0.646;entryY=0.998;entryDx=0;entryDy=0;entryPerimeter=0;fillColor=#cdeb8b;strokeColor=#613E20;strokeWidth=2;" parent="WIyWlLk6GJQsqaUBKTNV-1" source="413kSDQB80cl6GEGwdz6-0" target="CaVhT0sytTr_e4BCysla-1" edge="1">
          <mxGeometry width="160" relative="1" as="geometry">
            <mxPoint x="80" y="450" as="sourcePoint" />
            <mxPoint x="118" y="383" as="targetPoint" />
          </mxGeometry>
        </mxCell>
        <mxCell id="413kSDQB80cl6GEGwdz6-3" value="&lt;p style=&quot;margin:0px;margin-top:4px;text-align:center;&quot;&gt;&lt;/p&gt;&lt;p style=&quot;text-align: center; margin: 0px 0px 0px 4px;&quot;&gt;&lt;b&gt;Hierarchical&lt;/b&gt;&lt;/p&gt;&lt;hr size=&quot;1&quot; style=&quot;text-align: center; border-style: solid;&quot;&gt;&lt;p style=&quot;margin:0px;margin-left:4px;&quot;&gt;&lt;br&gt;&lt;/p&gt;" style="verticalAlign=top;align=left;overflow=fill;html=1;whiteSpace=wrap;fillColor=#cdeb8b;strokeColor=#613E20;strokeWidth=2;" parent="WIyWlLk6GJQsqaUBKTNV-1" vertex="1">
          <mxGeometry x="301" y="440" width="80" height="40" as="geometry" />
        </mxCell>
        <mxCell id="413kSDQB80cl6GEGwdz6-4" value="Extends" style="endArrow=block;endSize=16;endFill=0;html=1;rounded=0;exitX=0.5;exitY=0;exitDx=0;exitDy=0;entryX=0.813;entryY=0.998;entryDx=0;entryDy=0;entryPerimeter=0;fillColor=#cdeb8b;strokeColor=#613E20;strokeWidth=2;" parent="WIyWlLk6GJQsqaUBKTNV-1" source="413kSDQB80cl6GEGwdz6-3" target="CaVhT0sytTr_e4BCysla-1" edge="1">
          <mxGeometry width="160" relative="1" as="geometry">
            <mxPoint x="120" y="450" as="sourcePoint" />
            <mxPoint x="92" y="382" as="targetPoint" />
          </mxGeometry>
        </mxCell>
        <mxCell id="413kSDQB80cl6GEGwdz6-6" value="Mediator" style="swimlane;fontStyle=1;align=center;verticalAlign=top;childLayout=stackLayout;horizontal=1;startSize=26;horizontalStack=0;resizeParent=1;resizeParentMax=0;resizeLast=0;collapsible=1;marginBottom=0;whiteSpace=wrap;html=1;fillColor=#cdeb8b;strokeColor=#613E20;strokeWidth=2;" parent="WIyWlLk6GJQsqaUBKTNV-1" vertex="1">
          <mxGeometry x="305" y="-24" width="160" height="80" as="geometry" />
        </mxCell>
        <mxCell id="413kSDQB80cl6GEGwdz6-7" value="received_operations: queue&lt;div&gt;to_be_sent_packets: queue&lt;/div&gt;&lt;div&gt;network_events: queue&lt;/div&gt;" style="text;strokeColor=#613E20;fillColor=#cdeb8b;align=left;verticalAlign=top;spacingLeft=4;spacingRight=4;overflow=hidden;rotatable=0;points=[[0,0.5],[1,0.5]];portConstraint=eastwest;whiteSpace=wrap;html=1;strokeWidth=2;" parent="413kSDQB80cl6GEGwdz6-6" vertex="1">
          <mxGeometry y="26" width="160" height="54" as="geometry" />
        </mxCell>
        <mxCell id="413kSDQB80cl6GEGwdz6-10" value="Consumer" style="swimlane;fontStyle=1;align=center;verticalAlign=top;childLayout=stackLayout;horizontal=1;startSize=26;horizontalStack=0;resizeParent=1;resizeParentMax=0;resizeLast=0;collapsible=1;marginBottom=0;whiteSpace=wrap;html=1;fillColor=#cdeb8b;strokeColor=#613E20;strokeWidth=2;" parent="WIyWlLk6GJQsqaUBKTNV-1" vertex="1">
          <mxGeometry x="395" y="120" width="160" height="82" as="geometry" />
        </mxCell>
        <mxCell id="413kSDQB80cl6GEGwdz6-13" value="+ get_event()&lt;div&gt;+ put_to_be_sent()&lt;/div&gt;&lt;div&gt;+ get_received_op()&lt;/div&gt;" style="text;strokeColor=#613E20;fillColor=#cdeb8b;align=left;verticalAlign=top;spacingLeft=4;spacingRight=4;overflow=hidden;rotatable=0;points=[[0,0.5],[1,0.5]];portConstraint=eastwest;whiteSpace=wrap;html=1;strokeWidth=2;" parent="413kSDQB80cl6GEGwdz6-10" vertex="1">
          <mxGeometry y="26" width="160" height="56" as="geometry" />
        </mxCell>
        <mxCell id="413kSDQB80cl6GEGwdz6-14" value="Producer" style="swimlane;fontStyle=1;align=center;verticalAlign=top;childLayout=stackLayout;horizontal=1;startSize=26;horizontalStack=0;resizeParent=1;resizeParentMax=0;resizeLast=0;collapsible=1;marginBottom=0;whiteSpace=wrap;html=1;fillColor=#cdeb8b;strokeColor=#613E20;strokeWidth=2;" parent="WIyWlLk6GJQsqaUBKTNV-1" vertex="1">
          <mxGeometry x="190" y="120" width="160" height="82" as="geometry" />
        </mxCell>
        <mxCell id="413kSDQB80cl6GEGwdz6-17" value="+ put_event()&lt;br&gt;+ get_to_be_sent()&lt;br&gt;+ put_received_op()" style="text;strokeColor=#613E20;fillColor=#cdeb8b;align=left;verticalAlign=top;spacingLeft=4;spacingRight=4;overflow=hidden;rotatable=0;points=[[0,0.5],[1,0.5]];portConstraint=eastwest;whiteSpace=wrap;html=1;strokeWidth=2;" parent="413kSDQB80cl6GEGwdz6-14" vertex="1">
          <mxGeometry y="26" width="160" height="56" as="geometry" />
        </mxCell>
        <mxCell id="413kSDQB80cl6GEGwdz6-18" value="Extends" style="endArrow=block;endSize=16;endFill=0;html=1;rounded=0;entryX=0.65;entryY=1.061;entryDx=0;entryDy=0;entryPerimeter=0;fillColor=#cdeb8b;strokeColor=#613E20;strokeWidth=2;" parent="WIyWlLk6GJQsqaUBKTNV-1" source="413kSDQB80cl6GEGwdz6-10" edge="1">
          <mxGeometry width="160" relative="1" as="geometry">
            <mxPoint x="317" y="355" as="sourcePoint" />
            <mxPoint x="409" y="57.58600000000001" as="targetPoint" />
          </mxGeometry>
        </mxCell>
        <mxCell id="413kSDQB80cl6GEGwdz6-19" value="Extends" style="endArrow=block;endSize=16;endFill=0;html=1;rounded=0;exitX=0.5;exitY=0;exitDx=0;exitDy=0;entryX=0.266;entryY=0.998;entryDx=0;entryDy=0;entryPerimeter=0;fillColor=#cdeb8b;strokeColor=#613E20;strokeWidth=2;" parent="WIyWlLk6GJQsqaUBKTNV-1" source="413kSDQB80cl6GEGwdz6-14" edge="1">
          <mxGeometry width="160" relative="1" as="geometry">
            <mxPoint x="220" y="460" as="sourcePoint" />
            <mxPoint x="347.55999999999995" y="55.94800000000009" as="targetPoint" />
          </mxGeometry>
        </mxCell>
        <mxCell id="413kSDQB80cl6GEGwdz6-20" value="" style="endArrow=diamondThin;endFill=1;endSize=24;html=1;rounded=0;entryX=0;entryY=0;entryDx=0;entryDy=0;fillColor=#cdeb8b;strokeColor=#613E20;strokeWidth=2;exitX=0.5;exitY=1;exitDx=0;exitDy=0;" parent="WIyWlLk6GJQsqaUBKTNV-1" target="CaVhT0sytTr_e4BCysla-0" edge="1" source="413kSDQB80cl6GEGwdz6-10">
          <mxGeometry width="160" relative="1" as="geometry">
            <mxPoint x="470" y="209" as="sourcePoint" />
            <mxPoint x="450" y="230" as="targetPoint" />
          </mxGeometry>
        </mxCell>
        <mxCell id="413kSDQB80cl6GEGwdz6-23" value="" style="endArrow=diamondThin;endFill=1;endSize=24;html=1;rounded=0;entryX=0.5;entryY=0;entryDx=0;entryDy=0;fillColor=#cdeb8b;strokeColor=#613E20;strokeWidth=2;exitX=0.5;exitY=1;exitDx=0;exitDy=0;" parent="WIyWlLk6GJQsqaUBKTNV-1" target="CaVhT0sytTr_e4BCysla-1" edge="1" source="413kSDQB80cl6GEGwdz6-14">
          <mxGeometry width="160" relative="1" as="geometry">
            <mxPoint x="300" y="230" as="sourcePoint" />
            <mxPoint x="400" y="230" as="targetPoint" />
          </mxGeometry>
        </mxCell>
      </root>
    </mxGraphModel>
  </diagram>
</mxfile>
